<?xml version="1.0" encoding="UTF-8"?>
<svg xmlns="http://www.w3.org/2000/svg" width="29" height="31" fill="#444" fill-rule="nonzero">
  <path d="M19.882 2.885v1.698h1.698l-1.698-1.698zm2.052 18.042l5.236 6.792V13.7l-5.236 7.217zm4.458 8.137l-5.66-7.43H7.854l-5.73 7.43h24.27zM1.415 27.72l5.165-6.792L1.415 13.7v14zm27.17-16.132V29.77c0 .425-.354.708-.778.708H.708c-.425 0-.708-.283-.708-.708V11.587c0-.212.07-.495.283-.566L4.6 7.767v-6.58c0-.425.283-.708.708-.708h13.868a.64.64 0 0 1 .495.212l4.104 4.104c.142.07.212.283.212.495v2.476l4.316 3.255c.142.07.283.354.283.566zM4.6 9.536L1.7 11.73l2.9 3.962V9.536zm22.288 2.193l-2.9-2.193v6.156l2.9-3.962zM6.014 17.672l1.84 2.547H20.73l1.84-2.547V5.998h-3.396a.71.71 0 0 1-.708-.708V1.894H6.014v15.778zM9.4 8.97c-.425 0-.708-.283-.708-.708a.71.71 0 0 1 .708-.708h6.5c.354 0 .708.354.708.708a.71.71 0 0 1-.708.708H9.4zm0 3.68c-.425 0-.708-.283-.708-.708a.71.71 0 0 1 .708-.708h9.764c.354 0 .708.354.708.708a.71.71 0 0 1-.708.708H9.4zm0 3.75a.71.71 0 0 1-.708-.708c0-.425.283-.708.708-.708h7.642a.71.71 0 0 1 .708.708c0 .354-.354.708-.708.708H9.4z"></path>
</svg>
