<?xml version="1.0" encoding="UTF-8"?>
<svg xmlns="http://www.w3.org/2000/svg" width="97" height="96">
  <path d="M61.734 69.22a7.89 7.89 0 1 1 0-15.78 7.89 7.89 0 0 1 7.89 7.89 7.9 7.9 0 0 1-7.89 7.89zm-7.55-21.86a15.9 15.9 0 0 1 18.808 25.228A15.9 15.9 0 0 1 47.764 53.78a9.13 9.13 0 0 1-9.36-.57 9.13 9.13 0 0 1-9 7.43h-2.32v2.9a4 4 0 0 0 3.32 3.94l5.2.9a26.93 26.93 0 0 0 2.68 6.47l-3 4.32a4 4 0 0 0 .45 5.12l3.1 3.1a4 4 0 0 0 5.12.45l4.32-3a26.9 26.9 0 0 0 6.47 2.68l.9 5.2a4 4 0 0 0 3.88 3.28h4.4a4 4 0 0 0 3.93-3.3l.9-5.2a27 27 0 0 0 6.47-2.68l4.32 3a4 4 0 0 0 5.12-.45l3.1-3.1a4 4 0 0 0 .45-5.12l-3-4.32a26.87 26.87 0 0 0 2.68-6.47l5.2-.9a4 4 0 0 0 3.29-3.92v-4.4a4 4 0 0 0-3.3-3.93l-5.2-.9a26.88 26.88 0 0 0-2.68-6.47l3-4.32a4 4 0 0 0-.45-5.12l-3.1-3.1a4 4 0 0 0-5.12-.45l-4.32 3a26.91 26.91 0 0 0-6.47-2.68l-.9-5.14a4 4 0 0 0-3.93-3.3h-2.9v2.4a9.13 9.13 0 0 1-7.43 9 9.13 9.13 0 0 1 .57 9.27zM.404 29.06V25.6a3.15 3.15 0 0 1 2.6-3.1l4.1-.72a21.21 21.21 0 0 1 2.11-5.1l-2.4-3.4a3.15 3.15 0 0 1 .35-4l2.45-2.45a3.15 3.15 0 0 1 4-.35l3.4 2.4a21.18 21.18 0 0 1 5.1-2.11l.72-4.1A3.15 3.15 0 0 1 25.994 0h3.47a3.15 3.15 0 0 1 3.1 2.6l.72 4.1a21.2 21.2 0 0 1 5.12 2.13l3.4-2.4a3.15 3.15 0 0 1 4 .35l2.45 2.45a3.15 3.15 0 0 1 .35 4l-2.4 3.4a21.2 21.2 0 0 1 2.11 5.1l4.1.72a3.15 3.15 0 0 1 2.6 3.1v3.47a3.15 3.15 0 0 1-2.6 3.1l-4.1.72a21.19 21.19 0 0 1-2.09 5.16l2.4 3.4a3.15 3.15 0 0 1-.35 4l-2.45 2.45a3.15 3.15 0 0 1-4 .35l-3.42-2.37a21.23 21.23 0 0 1-5.1 2.11l-.74 4.06a3.15 3.15 0 0 1-3.1 2.6h-3.47a3.15 3.15 0 0 1-3.1-2.6l-.72-4.1a21.2 21.2 0 0 1-5.1-2.11l-3.4 2.4a3.15 3.15 0 0 1-4-.35l-2.48-2.43a3.15 3.15 0 0 1-.35-4l2.38-3.4a21.21 21.21 0 0 1-2.11-5.1l-4.1-.72a3.15 3.15 0 0 1-2.62-3.12zm18-1.73A9.37 9.37 0 0 0 34.4 33.996 9.37 9.37 0 0 0 27.734 18c-5.144.022-9.308 4.186-9.33 9.33z" fill="#000" fill-rule="nonzero"></path>
</svg>
