<?xml version="1.0" encoding="UTF-8"?>
<svg xmlns="http://www.w3.org/2000/svg" width="28" height="25">
  <path d="M.9.434a.91.91 0 1 0 0 1.82h3.63L9.025 13.46 7.65 16.77c-.115.276-.083.608.083.857a.93.93 0 0 0 .76.404h15.17a.95.95 0 0 0 .923-.91.95.95 0 0 0-.923-.91H9.86l.787-1.877 14.61-1.166c.382-.03.73-.328.815-.702l1.82-7.888c.12-.53-.347-1.11-.89-1.11H6.987L6 1.003c-.135-.334-.484-.57-.844-.57H.9zm6.807 4.854h18.136l-1.413 6.124-13.832 1.1-2.892-7.224zm3.81 13.35a3.05 3.05 0 0 0-3.034 3.034 3.05 3.05 0 0 0 3.034 3.034 3.05 3.05 0 0 0 3.034-3.034 3.05 3.05 0 0 0-3.034-3.034zm9.1 0a3.05 3.05 0 0 0-3.034 3.034 3.05 3.05 0 0 0 3.034 3.034 3.05 3.05 0 0 0 3.034-3.034 3.05 3.05 0 0 0-3.034-3.034zm-9.1 1.82a1.2 1.2 0 0 1 1.214 1.214 1.2 1.2 0 0 1-1.214 1.214 1.2 1.2 0 0 1-1.214-1.214 1.2 1.2 0 0 1 1.214-1.214zm9.1 0a1.2 1.2 0 0 1 1.214 1.214 1.2 1.2 0 0 1-1.214 1.214 1.2 1.2 0 0 1-1.214-1.214 1.2 1.2 0 0 1 1.214-1.214z" fill="#444" fill-rule="nonzero"></path>
</svg>
