<?xml version="1.0" encoding="UTF-8"?>
<svg xmlns="http://www.w3.org/2000/svg" width="30" height="30" fill="#444" fill-rule="nonzero">
  <path d="M2.185 27.888c-.348.348-.35.9-.004 1.255a.89.89 0 0 0 1.255-.007s6.754-5.48 11.334-9.6l-2.97-2.97C7.666 21.136 2.185 27.89 2.185 27.89zm22.08-18.955L22.4 7.06s-2.48 1.752-5.4 4.335l2.945 2.945 4.34-5.407zm.666-.596s2.182.288 4.418-2.525c1.796-2.26-.63-5.68-.63-5.68s-.995 2.7-2.2 2.84c-1.414.164-2.294.4-2.98 1.086-.886.886-.492 2.386-.492 2.386l1.894 1.894zm2.4 15.468l-.417-.417-3.1 3.102 2.48 2.48a1.81 1.81 0 0 0 1.167.428c.574 0 1.152-.267 1.624-.735.8-.805 1.013-1.932.307-2.8l-2.063-2.067zm-1.45-1.448h-.004L7.676 4.163 4.574 7.265 23.18 25.872l3.103-3.102zM2.576 3.885l1.378 2.757 3.1-3.102-.552-.274-3.168-1.584-1.24 1.24zM2.03.914L.542.13l1.28 2.44L2.986 1.4z"></path>
</svg>
