<?xml version="1.0" encoding="UTF-8"?>
<svg xmlns="http://www.w3.org/2000/svg" width="30" height="30" fill="#444" fill-rule="nonzero">
  <path d="M29.25 28.326h-1.08v-18.3a.6.6 0 0 0-.6-.6h-3.54a.6.6 0 0 0-.6.6v18.3h-2.46v-10.5a.6.6 0 0 0-.6-.6h-3.54a.6.6 0 0 0-.6.6v10.5h-2.46v-14.7a.6.6 0 0 0-.6-.6H9.63a.6.6 0 0 0-.6.6v14.7H6.57v-8.1a.6.6 0 0 0-.6-.6H2.43a.6.6 0 0 0-.6.6v8.1H.75a.6.6 0 0 0 0 1.2h28.5a.6.6 0 0 0 0-1.2zm-4.62-17.7h2.34v17.7h-2.34v-17.7zm-7.2 7.8h2.34v9.9h-2.34v-9.9zm-7.2-4.2h2.34v14.1h-2.34v-14.1zm-7.2 6.6h2.34v7.5H3.03v-7.5zM25.8.126a2.41 2.41 0 0 0-2.4 2.4c0 .48.15.96.42 1.32l-4.3 4.26c-.3-.12-.6-.18-.93-.18a2.35 2.35 0 0 0-1.5.54l-3.3-2.07c0-.1.03-.18.03-.27a2.41 2.41 0 0 0-2.4-2.4 2.41 2.41 0 0 0-2.4 2.4c0 .33.06.66.2.96l-4.1 3.42c-.27-.12-.6-.18-.93-.18a2.41 2.41 0 0 0-2.4 2.4 2.41 2.41 0 0 0 2.4 2.4 2.41 2.41 0 0 0 2.4-2.4c0-.54-.18-1.05-.5-1.47l3.84-3.24c.4.3.9.5 1.47.5.8 0 1.5-.4 1.95-1l3.03 1.9c-.12.27-.18.57-.18.9a2.41 2.41 0 0 0 2.4 2.4 2.41 2.41 0 0 0 2.4-2.4c0-.54-.18-1.05-.5-1.47l4.2-4.2c.33.18.7.27 1.1.27a2.41 2.41 0 0 0 2.4-2.4 2.41 2.41 0 0 0-2.4-2.4zm-21.6 13.8c-.66 0-1.2-.54-1.2-1.2s.54-1.2 1.2-1.2 1.2.54 1.2 1.2-.54 1.2-1.2 1.2zm7.2-6.6c-.66 0-1.2-.54-1.2-1.2s.54-1.2 1.2-1.2 1.2.54 1.2 1.2-.54 1.2-1.2 1.2zm7.2 4.2c-.66 0-1.2-.54-1.2-1.2s.54-1.2 1.2-1.2 1.2.54 1.2 1.2-.54 1.2-1.2 1.2zm7.2-7.8c-.66 0-1.2-.54-1.2-1.2s.54-1.2 1.2-1.2 1.2.54 1.2 1.2-.54 1.2-1.2 1.2z"></path>
</svg>
