<svg xmlns="http://www.w3.org/2000/svg" xmlns:xlink="http://www.w3.org/1999/xlink" width="30px" height="30px" viewBox="0 0 30 30">
  <title>Design</title>
  <g id="Desktop" stroke="none" stroke-width="1" fill="none" fill-rule="evenodd">
    <g id="Fortnight-1-Copy-5" transform="translate(-504.000000, -3664.000000)" fill="#444444" fill-rule="nonzero">
      <g id="Group" transform="translate(504.541667, 3664.130859)">
        <path d="M1.64268293,27.7573171 C1.29512195,28.104878 1.29146341,28.6682927 1.63902439,29.0121951 C1.98292683,29.3560976 2.54634146,29.3528049 2.89390244,29.004878 C2.89390244,29.004878 9.64756098,23.5243902 14.2280488,19.3935366 L11.2573171,16.4228049 C7.12317073,21.0036585 1.64268293,27.7573171 1.64268293,27.7573171 Z" id="Path"></path>
        <path d="M23.7215854,8.80243902 L21.8484146,6.92926829 C21.8484146,6.92926829 19.3682927,8.68170732 16.437439,11.2646341 L19.3829268,14.2097561 C21.9691463,11.2829268 23.7215854,8.80243902 23.7215854,8.80243902 Z" id="Path"></path>
        <path d="M24.3867073,8.20609756 C24.3867073,8.20609756 26.5686585,8.49402439 28.805122,5.68097561 C30.6014634,3.42146341 28.1740244,6.35589142e-13 28.1740244,6.35589142e-13 C28.1740244,6.35589142e-13 27.1789024,2.69890244 25.9646341,2.8404878 C24.5506098,3.00439024 23.6707317,3.24 22.9843902,3.92670732 C22.0982927,4.81280488 22.4923171,6.31243902 22.4923171,6.31243902 L24.3867073,8.20609756 Z" id="Path"></path>
        <path d="M26.7768293,23.6743902 L26.3593902,23.2573171 L23.2606098,26.3593902 L25.7410976,28.839878 C26.0959756,29.132561 26.5020732,29.2679268 26.9078049,29.2679268 C27.4821951,29.2679268 28.0602439,29.0008537 28.5321951,28.532561 C29.3330488,27.7276829 29.5456098,26.6008537 28.8395122,25.7410976 L26.7768293,23.6743902 Z" id="Path"></path>
        <polygon id="Path" points="25.3280488 22.2256098 25.3240244 22.2256098 18.4020732 15.3 15.347561 12.245122 7.54756098 4.44512195 7.13414634 4.03170732 4.03170732 7.13414634 4.44512195 7.54756098 12.2414634 15.3439024 15.3036585 18.4060976 22.2256098 25.3280488 22.6386585 25.7414634 25.7414634 22.6390244"></polygon>
        <polygon id="Path" points="2.03414634 3.75365854 3.13902439 5.9597561 3.41341463 6.51219512 6.51219512 3.4097561 5.9597561 3.13536585 3.75731707 2.03414634 2.79146341 1.55121951 1.55121951 2.79146341"></polygon>
        <polygon id="Path" points="1.48902439 0.782926829 -1.27800209e-12 -3.19744231e-13 0.782926829 1.48902439 1.2804878 2.4402439 2.44390244 1.2804878"></polygon>
      </g>
    </g>
  </g>
</svg>
