<?xml version="1.0" encoding="UTF-8"?>
<svg xmlns="http://www.w3.org/2000/svg" width="34" height="21" fill="#444" fill-rule="nonzero">
  <path d="M17.603.505a9.79 9.79 0 0 0-9.777 9.777 9.77 9.77 0 0 0 9.777 9.777 9.79 9.79 0 0 0 9.777-9.777A9.79 9.79 0 0 0 17.603.505zm4.23 10.783h-4.23c-.555 0-1.005-.45-1.005-1.005v-5.2c0-.555.45-1.005 1.005-1.005s1.005.45 1.005 1.005v4.195h3.224c.555 0 1.005.45 1.005 1.005s-.45 1.005-1.005 1.005zM32.963.505c-1.942.867-3.26 2.774-3.328 4.923L29.46 9.97c-.035.797.624 1.456 1.422 1.456h.555l-1.04 6.726c-.173 1.04.624 1.942 1.664 1.942a1.7 1.7 0 0 0 1.699-1.699V1.025c0-.416-.416-.693-.797-.52zM5.815.436c-.347 0-.6.277-.6.6v4.542a.31.31 0 0 1-.312.312h-.38a.31.31 0 0 1-.312-.312V1.06c0-.347-.277-.6-.6-.6-.347 0-.6.277-.6.6v4.542a.31.31 0 0 1-.312.312h-.38a.31.31 0 0 1-.312-.312V1.06c0-.347-.277-.6-.6-.6a.61.61 0 0 0-.589.589V6.4A1.43 1.43 0 0 0 2.28 7.822h.312L1.9 18.292c-.07.97.728 1.803 1.7 1.803h.035c.97 0 1.768-.832 1.7-1.803L4.706 7.786h.312A1.43 1.43 0 0 0 6.44 6.364V1.06C6.404.713 6.162.436 5.815.436z"></path>
</svg>
