<?xml version="1.0" encoding="UTF-8"?>
<svg xmlns="http://www.w3.org/2000/svg" xmlns:xlink="http://www.w3.org/1999/xlink" width="33" height="29">
  <g fill="#444" fill-rule="nonzero">
    <circle cx="26.723" cy="3.556" r="1"></circle>
    <circle cx="24.751" cy="3.556" r="1"></circle>
    <circle cx="22.778" cy="3.556" r="1"></circle>
    <path d="M29.86 17.3c-.274 0-.497.222-.497.497v8.778c-.01.42-.356.75-.775.745H2.31c-.42.006-.764-.327-.775-.745V6.44h27.826v1.74c0 .274.222.497.497.497s.497-.222.497-.497V2.217A1.76 1.76 0 0 0 28.587.478H2.31A1.76 1.76 0 0 0 .542 2.217v24.348a1.76 1.76 0 0 0 1.769 1.739h26.276a1.76 1.76 0 0 0 1.769-1.739v-8.778c0-.274-.222-.497-.497-.497zM2.31 1.472h26.276c.42-.006.764.327.775.745v3.23H1.536v-3.23c.01-.42.356-.75.775-.745z"></path>
    <use xlink:href="#B"></use>
    <use xlink:href="#B" y="2.981"></use>
    <path d="M24.393 9.92c0-.274-.222-.497-.497-.497h-5.963c-.274 0-.497.222-.497.497s.222.497.497.497h5.963c.274 0 .497-.222.497-.497zm-6.46 2.483c-.274 0-.497.222-.497.497s.222.497.497.497h3.975c.274 0 .497-.222.497-.497s-.222-.497-.497-.497h-3.975z"></path>
    <path d="M29.205 9.556a.5.5 0 0 0-.352-.146c-.132 0-.258.052-.352.146l-9.78 9.78c-.06.06-.104.136-.127.22l-1.14 4.134c-.048.172.001.357.128.484s.3.175.484.128l4.132-1.14c.083-.023.158-.066.22-.127l9.78-9.78a.5.5 0 0 0 .146-.352c0-.132-.052-.258-.146-.352l-3-2.994zM18.972 21.914l.867.867-1.198.33.33-1.198zm2.832.323l-.865.248-1.665-1.665.248-.865 7.354-7.366 2.288 2.298-7.36 7.35zm8.055-8.06l-2.3-2.3 1.297-1.277 2.278 2.3-1.284 1.277zM15.45 9.92a.6.6 0 0 0 0-.06v-.04c-.004-.017-.01-.033-.015-.05s0-.03-.015-.045-.015-.025-.02-.04-.017-.032-.027-.047l-.025-.027-.035-.04-.04-.032-.037-.027-.045-.025-.042-.02-.05-.015H3.9l-.05.015-.04.02-.045.025-.037.027-.04.032-.035.037-.025.027c-.01.015-.02.03-.027.047 0 .012-.015.025-.02.04s0 .03-.015.045c-.006.016-.01.033-.015.05v.04c-.007.02-.013.04-.017.062v7.95a.6.6 0 0 0 0 .06v.04c.004.017.01.033.015.05 0 .015 0 .03.015.045s.015.025.02.04.017.032.027.047l.017.017a.47.47 0 0 0 .052.057l.032.025.057.037.035.017.072.027h.027a.46.46 0 0 0 .127.035h10.932a.48.48 0 0 0 .107-.012h.027l.072-.027.035-.017.057-.037.032-.025a.46.46 0 0 0 .052-.057l.017-.017c.01-.015.02-.03.027-.047 0-.012.015-.025.02-.04s0-.03.015-.045c.006-.016.01-.033.015-.05v-.04c.01-.027.016-.054.02-.082V9.92zm-10.932.976l4.124 3-4.124 3v-5.998zm1.03-.48h7.876L9.486 13.28l-3.938-2.865zm3.938 4.092l3.938 2.865H5.548l3.938-2.865zm.845-.614l4.124-3v5.998l-4.124-3z"></path>
  </g>
  <defs>
    <path id="B" d="M14.952 20.354H4.02c-.274 0-.497.222-.497.497s.222.497.497.497h10.932c.274 0 .497-.222.497-.497s-.222-.497-.497-.497z"></path>
  </defs>
</svg>
