<?xml version="1.0" encoding="UTF-8"?>
<svg xmlns="http://www.w3.org/2000/svg" width="35" height="27" fill="#444" fill-rule="nonzero">
  <path d="M5.192 5.584v8.85h9.62v-8.85h-9.62zM13.377 13H6.66V7.053h6.717V13zm-8.185 3.848h18.6v1.434h-18.6zm0 3.568h18.6v1.434h-18.6zM17.68 13v1.434h1.6c-.035-.14-.035-.315-.035-.455V13H17.68zm0-3.708h1.574v1.434H17.68zm0-3.708h1.574v1.434H17.68zm15.812 10.914h-1.574V25h-.595c-1.364 0-2.45-1.084-2.45-2.45v-1.294h1.644V19.82h-1.644v-2.45h1.644v-.84H27.3v6.017a3.94 3.94 0 0 0 .735 2.31l.105.14-23.473.035c-1.364 0-2.45-1.084-2.45-2.45v-17.7c0-1.364 1.084-2.45 2.45-2.45H24.85c.945 0 1.82.56 2.204 1.434h1.68C28.28 2.12 26.67.86 24.85.86H4.632C2.428.86.6 2.645.6 4.884V22.55c0 2.204 1.784 4.023 4.023 4.023h28.02c.2 0 .42-.07.56-.2s.245-.35.245-.56v-9.305h.035zm.35-10.844H21.878c-.385 0-.665.315-.665.735v7.276c0 .385.315.735.665.735h11.964c.385 0 .665-.315.665-.735V6.388c0-.385-.315-.735-.665-.735zm-1.96 1.47l-4.058 2.554L23.8 7.124h8.08zm1.294 5.807H22.543v-5.25l5.002 3.323c.2.14.5.14.7 0l4.932-3.323v5.247z"></path>
</svg>
