<?xml version="1.0" encoding="UTF-8"?>
<svg xmlns="http://www.w3.org/2000/svg" width="29" height="30">
  <path d="M9.075 7.52L6.102 9.208l-3.66 2.152-.574.575c-1.12 1.13-1.827 3.5-1.827 5.25 0 1.67-.027 2.58.607 4.167.417 1.045 1.09 1.855 1.916 2.515 1.983 1.585 4.207 1.49 6.51 1.49v2.415c0 .417.34 1 .562 1.222.12.12.385.293.54.378a1.44 1.44 0 0 0 .724.183h13.535c.46 0 .998-.345 1.238-.6.28-.3.544-.75.544-1.295v-2.82h.633c2.115 0 2.385-3.394-.23-3.394h-2.876c-1.6 0-2.084 1.43-1.63 2.493.106.247.176.284.35.457.584.585 1.35.445 2.317.445v1.035H10.512V11.72c0-.162 1.31-.994 1.612-1.207l2.802-2.146c.7-.6 1.396-1.256 1.396-2.284 0-.787-.6-1.44-1.38-1.44-.92 0-1.67.57-2.32.9l-2.1 1.17v-3.45H24.78V9.65c-.577 0-1.608.014-1.977.21-1.392.74-1 3.184.712 3.184h3.51c.683 0 1.44-.698 1.44-1.38 0-.67.052-1.17-.623-1.68-.423-.318-1.004-.335-1.62-.335v-7.65c0-.548-.265-.997-.544-1.297-.24-.256-.78-.6-1.24-.6h-13.52c-.663 0-1.195.42-1.48.82-.423.59-.36.993-.36 1.942v4.66zm12.886 7.594c0-.73.727-1.496 1.44-1.496h3.625c.446 0 .854.285 1.08.53.86.926.24 2.806-1.023 2.806h-3.625c-.832 0-1.496-.727-1.496-1.553v-.288zm0 3.912c0-.753.716-1.497 1.612-1.497h3.335c1.604 0 2.02 2.067 1.058 2.958-.356.33-.715.436-1.346.436h-2.876c-.524 0-.97-.153-1.253-.415-.515-.473-.53-.895-.53-1.482zm-4.315 7.597a.97.97 0 0 1 .968.968.97.97 0 0 1-.968.968c-.536 0-.968-.432-.968-.968a.97.97 0 0 1 .968-.968zM15.57 1.512h4.15c.138 0 .25.113.25.252a.25.25 0 0 1-.251.251h-4.15c-.138 0-.25-.113-.25-.25s.115-.252.25-.252z" fill="#444" fill-rule="nonzero"></path>
</svg>
