<?xml version="1.0" encoding="UTF-8"?>
<svg xmlns="http://www.w3.org/2000/svg" width="30" height="29" fill="#444" fill-rule="nonzero">
  <path d="M23.125 15.125c-3.797 0-6.875 3.078-6.875 6.875s3.078 6.875 6.875 6.875S30 25.797 30 22a6.87 6.87 0 0 0-2.014-4.86 6.88 6.88 0 0 0-4.86-2.014zm0 12.5c-3.107 0-5.625-2.518-5.625-5.625s2.518-5.625 5.625-5.625S28.75 18.893 28.75 22s-2.518 5.625-5.625 5.625zm1.988-7.8l-3.03 3.025-.944-.944c-.117-.118-.277-.185-.444-.185s-.326.067-.444.185c-.242.244-.242.637 0 .88l1.394 1.387c.244.242.637.242.88 0L26 20.706c.243-.245.242-.64-.003-.884s-.64-.242-.884.003zm-10.533 5.3H2.5a1.25 1.25 0 0 1-1.25-1.25v-13.75h18.125c.345 0 .625-.28.625-.625s-.28-.625-.625-.625H1.25v-3.75a1.25 1.25 0 0 1 1.25-1.25h2.813V4.5c0 1.036.84 1.875 1.875 1.875h.625c1.036 0 1.875-.84 1.875-1.875v-.625h8.125V4.5c0 1.036.84 1.875 1.875 1.875h.625c1.036 0 1.875-.84 1.875-1.875v-.625H25a1.25 1.25 0 0 1 1.25 1.25v3.75h-2.8c-.345 0-.625.28-.625.625s.28.625.625.625h2.8v3.713c0 .345.28.625.625.625s.625-.28.625-.625V5.125a2.5 2.5 0 0 0-2.5-2.5h-2.812V2c0-1.036-.84-1.875-1.875-1.875h-.625c-1.036 0-1.875.84-1.875 1.875v.625H9.688V2c0-1.036-.84-1.875-1.875-1.875h-.625C6.152.125 5.313.964 5.313 2v.625H2.5a2.5 2.5 0 0 0-2.5 2.5v18.75a2.5 2.5 0 0 0 2.5 2.5h12.08c.345 0 .625-.28.625-.625s-.28-.625-.625-.625zM19.063 2c0-.345.28-.625.625-.625h.625c.345 0 .625.28.625.625v2.5c0 .345-.28.625-.625.625h-.625c-.345 0-.625-.28-.625-.625V2zm-12.5 0c0-.345.28-.625.625-.625h.625c.345 0 .625.28.625.625v2.5c0 .345-.28.625-.625.625h-.625c-.345 0-.625-.28-.625-.625V2z"></path>
  <circle cx="13.75" cy="13.875" r="1.25"></circle>
  <circle cx="6.25" cy="13.875" r="1.25"></circle>
  <circle cx="6.25" cy="20.75" r="1.25"></circle>
</svg>
