<svg viewBox="0 0 81 16" version="1.1" xmlns="http://www.w3.org/2000/svg" xmlns:xlink="http://www.w3.org/1999/xlink">
    <title>BOURN</title>
    <g stroke="none" stroke-width="1" fill="none" fill-rule="evenodd">
        <g transform="translate(-151.000000, -55.000000)" fill="#111111" fill-rule="nonzero">
            <path d="M151.404,70.2805427 L156.62216,70.2805427 C160.206993,70.2805427 162.116076,68.47752 162.116076,66.2502566 C162.116076,64.5957181 161.055475,63.1320879 159.167604,62.6654232 L159.167604,62.538151 C160.48275,62.0078502 161.267595,60.8411885 161.267595,59.4624064 C161.267595,57.2563551 159.358512,55.4321203 155.773679,55.4321203 L151.404,55.4321203 L151.404,70.2805427 Z M156.919128,63.7048128 C158.849423,63.7048128 159.740329,64.7442023 159.740329,66.1229844 C159.740329,67.3744943 158.764575,68.2866117 156.707008,68.2866117 L153.779748,68.2866117 L153.779748,63.7048128 L156.919128,63.7048128 Z M155.858527,57.4260513 C157.958518,57.4260513 158.891847,58.4018048 158.891847,59.5684665 C158.891847,60.8411885 158.022154,61.7957299 156.070647,61.7957299 L153.779748,61.7957299 L153.779748,57.4260513 L155.858527,57.4260513 Z M166.212355,62.8563315 C166.212355,67.204798 169.521432,70.492663 173.721414,70.492663 C177.942609,70.492663 181.251686,67.204798 181.251686,62.8563315 C181.251686,58.507865 177.794125,55.22 173.721414,55.22 C169.521432,55.22 166.212355,58.507865 166.212355,62.8563315 Z M168.588103,62.8563315 C168.588103,59.8017989 170.730518,57.213931 173.721414,57.213931 C176.733523,57.213931 178.875938,59.8017989 178.875938,62.8563315 C178.875938,66.1017724 176.648675,68.498732 173.721414,68.498732 C170.730518,68.498732 168.588103,66.1017724 168.588103,62.8563315 Z M197.9267,55.4321203 L195.550952,55.4321203 L195.550952,64.9775347 C195.550952,67.204798 193.896414,68.498732 191.923695,68.498732 C189.908552,68.498732 188.317649,67.204798 188.317649,64.9775347 L188.317649,55.4321203 L185.941902,55.4321203 L185.941902,64.9775347 C185.941902,68.3078237 188.550982,70.492663 191.923695,70.492663 C195.296408,70.492663 197.9267,68.3078237 197.9267,64.9775347 L197.9267,55.4321203 Z M211.780514,70.2805427 L214.474442,70.2805427 L210.6987,63.7896609 C212.544147,63.0684518 213.541112,61.5836096 213.541112,59.844223 C213.541112,57.4472634 211.568393,55.4321203 207.98356,55.4321203 L203.380549,55.4321203 L203.380549,70.2805427 L205.756296,70.2805427 L205.756296,64.2563256 L208.365376,64.2563256 L211.780514,70.2805427 Z M207.98356,57.4260513 C210.147187,57.4260513 211.165365,58.4230168 211.165365,59.844223 C211.165365,61.2866411 210.147187,62.2623946 207.98356,62.2623946 L205.756296,62.2623946 L205.756296,57.4260513 L207.98356,57.4260513 Z M229.197949,70.2805427 L222.00707,60.501796 L221.243437,59.1654379 L221.116165,59.207862 L221.116165,70.2805427 L218.740417,70.2805427 L218.740417,55.4321203 L220.946468,55.4321203 L228.179771,65.3805633 L228.90098,66.6320732 L229.028252,66.5896491 L229.028252,55.4321203 L231.404,55.4321203 L231.404,70.2805427 L229.197949,70.2805427 Z" id="BOURN"></path>
        </g>
    </g>
</svg>