<?xml version="1.0" standalone="no"?>
<!DOCTYPE svg PUBLIC "-//W3C//DTD SVG 20010904//EN"
 "http://www.w3.org/TR/2001/REC-SVG-20010904/DTD/svg10.dtd">
<svg version="1.0" xmlns="http://www.w3.org/2000/svg"
 width="280.000000pt" height="280.000000pt" viewBox="0 0 280.000000 280.000000"
 preserveAspectRatio="xMidYMid meet">
<metadata>
Created by potrace 1.11, written by Peter Selinger 2001-2013
</metadata>
<g transform="translate(0.000000,280.000000) scale(0.100000,-0.100000)"
fill="#000000" stroke="none">
<path d="M1279 2796 c-2 -2 -31 -6 -64 -9 -117 -12 -390 -95 -436 -134 -8 -7
-20 -13 -25 -13 -5 0 -43 -21 -84 -46 -358 -222 -598 -588 -657 -1004 -10 -67
-10 -318 0 -380 86 -571 487 -1022 1039 -1166 69 -18 76 -19 163 -32 61 -10
351 -8 395 2 14 3 59 13 100 22 148 32 355 120 464 197 303 213 492 481 581
820 13 51 27 108 30 127 11 63 13 334 4 395 -6 33 -12 74 -14 90 -7 54 -55
207 -92 293 -123 286 -355 535 -633 681 -93 49 -268 114 -340 126 -19 3 -55
11 -80 16 -44 11 -342 23 -351 15z"/>
</g>
</svg>
